<svg width="186" height="38" viewBox="0 0 186 38" fill="none" xmlns="http://www.w3.org/2000/svg">
<path d="M47.512 28.288C46.168 28.288 44.88 28.112 43.648 27.76C42.416 27.392 41.424 26.92 40.672 26.344L41.992 23.416C42.712 23.928 43.56 24.352 44.536 24.688C45.528 25.008 46.528 25.168 47.536 25.168C48.304 25.168 48.92 25.096 49.384 24.952C49.864 24.792 50.216 24.576 50.44 24.304C50.664 24.032 50.776 23.72 50.776 23.368C50.776 22.92 50.6 22.568 50.248 22.312C49.896 22.04 49.432 21.824 48.856 21.664C48.28 21.488 47.64 21.328 46.936 21.184C46.248 21.024 45.552 20.832 44.848 20.608C44.16 20.384 43.528 20.096 42.952 19.744C42.376 19.392 41.904 18.928 41.536 18.352C41.184 17.776 41.008 17.04 41.008 16.144C41.008 15.184 41.264 14.312 41.776 13.528C42.304 12.728 43.088 12.096 44.128 11.632C45.184 11.152 46.504 10.912 48.088 10.912C49.144 10.912 50.184 11.04 51.208 11.296C52.232 11.536 53.136 11.904 53.92 12.4L52.72 15.352C51.936 14.904 51.152 14.576 50.368 14.368C49.584 14.144 48.816 14.032 48.064 14.032C47.312 14.032 46.696 14.12 46.216 14.296C45.736 14.472 45.392 14.704 45.184 14.992C44.976 15.264 44.872 15.584 44.872 15.952C44.872 16.384 45.048 16.736 45.4 17.008C45.752 17.264 46.216 17.472 46.792 17.632C47.368 17.792 48 17.952 48.688 18.112C49.392 18.272 50.088 18.456 50.776 18.664C51.48 18.872 52.12 19.152 52.696 19.504C53.272 19.856 53.736 20.32 54.088 20.896C54.456 21.472 54.64 22.2 54.64 23.08C54.64 24.024 54.376 24.888 53.848 25.672C53.32 26.456 52.528 27.088 51.472 27.568C50.432 28.048 49.112 28.288 47.512 28.288ZM64.7607 28.288C62.3767 28.288 60.5127 27.624 59.1687 26.296C57.8247 24.968 57.1527 23.072 57.1527 20.608V11.2H61.0407V20.464C61.0407 22.064 61.3687 23.216 62.0247 23.92C62.6807 24.624 63.6007 24.976 64.7847 24.976C65.9687 24.976 66.8887 24.624 67.5447 23.92C68.2007 23.216 68.5287 22.064 68.5287 20.464V11.2H72.3687V20.608C72.3687 23.072 71.6967 24.968 70.3527 26.296C69.0087 27.624 67.1447 28.288 64.7607 28.288ZM76.2108 28V11.2H83.4828C84.9868 11.2 86.2828 11.448 87.3708 11.944C88.4588 12.424 89.2988 13.12 89.8908 14.032C90.4828 14.944 90.7788 16.032 90.7788 17.296C90.7788 18.544 90.4828 19.624 89.8908 20.536C89.2988 21.432 88.4588 22.12 87.3708 22.6C86.2828 23.08 84.9868 23.32 83.4828 23.32H78.3708L80.0988 21.616V28H76.2108ZM86.8907 28L82.6908 21.904H86.8428L91.0908 28H86.8907ZM80.0988 22.048L78.3708 20.224H83.2668C84.4668 20.224 85.3628 19.968 85.9548 19.456C86.5468 18.928 86.8428 18.208 86.8428 17.296C86.8428 16.368 86.5468 15.648 85.9548 15.136C85.3628 14.624 84.4668 14.368 83.2668 14.368H78.3708L80.0988 12.52V22.048ZM91.6512 28L99.1392 11.2H102.979L110.491 28H106.411L100.267 13.168H101.803L95.6352 28H91.6512ZM95.3952 24.4L96.4272 21.448H105.067L106.123 24.4H95.3952ZM115.714 24.16L115.498 19.672L123.538 11.2H127.858L120.61 19L118.45 21.304L115.714 24.16ZM112.234 28V11.2H116.098V28H112.234ZM123.73 28L117.754 20.68L120.298 17.92L128.266 28H123.73ZM135.168 28.288C133.824 28.288 132.536 28.112 131.304 27.76C130.072 27.392 129.08 26.92 128.328 26.344L129.648 23.416C130.368 23.928 131.216 24.352 132.192 24.688C133.184 25.008 134.184 25.168 135.192 25.168C135.96 25.168 136.576 25.096 137.04 24.952C137.52 24.792 137.872 24.576 138.096 24.304C138.32 24.032 138.432 23.72 138.432 23.368C138.432 22.92 138.256 22.568 137.904 22.312C137.552 22.04 137.088 21.824 136.512 21.664C135.936 21.488 135.296 21.328 134.592 21.184C133.904 21.024 133.208 20.832 132.504 20.608C131.816 20.384 131.184 20.096 130.608 19.744C130.032 19.392 129.56 18.928 129.192 18.352C128.84 17.776 128.664 17.04 128.664 16.144C128.664 15.184 128.92 14.312 129.432 13.528C129.96 12.728 130.744 12.096 131.784 11.632C132.84 11.152 134.16 10.912 135.744 10.912C136.8 10.912 137.84 11.04 138.864 11.296C139.888 11.536 140.792 11.904 141.576 12.4L140.376 15.352C139.592 14.904 138.808 14.576 138.024 14.368C137.24 14.144 136.472 14.032 135.72 14.032C134.968 14.032 134.352 14.12 133.872 14.296C133.392 14.472 133.048 14.704 132.84 14.992C132.632 15.264 132.528 15.584 132.528 15.952C132.528 16.384 132.704 16.736 133.056 17.008C133.408 17.264 133.872 17.472 134.448 17.632C135.024 17.792 135.656 17.952 136.344 18.112C137.048 18.272 137.744 18.456 138.432 18.664C139.136 18.872 139.776 19.152 140.352 19.504C140.928 19.856 141.392 20.32 141.744 20.896C142.112 21.472 142.296 22.2 142.296 23.08C142.296 24.024 142.032 24.888 141.504 25.672C140.976 26.456 140.184 27.088 139.128 27.568C138.088 28.048 136.768 28.288 135.168 28.288ZM156.473 11.2H160.361V28H156.473V11.2ZM148.841 28H144.953V11.2H148.841V28ZM156.761 21.112H148.553V17.824H156.761V21.112ZM162.128 28L169.616 11.2H173.456L180.968 28H176.888L170.744 13.168H172.28L166.112 28H162.128ZM165.872 24.4L166.904 21.448H175.544L176.6 24.4H165.872Z" fill="black"/>
<path d="M11.375 19.0426L15.125 22.8586L22.625 15.2265M32 19.0426C32 27.5545 21.7625 33.7224 18.2026 35.61C17.8177 35.8142 17.6251 35.9162 17.3581 35.9691C17.15 36.0103 16.85 36.0103 16.6419 35.9691C16.3749 35.9162 16.1823 35.8142 15.7974 35.61C12.2374 33.7224 2 27.5545 2 19.0426V11.8256C2 10.3001 2 9.53737 2.24518 8.88171C2.46176 8.30249 2.81371 7.78568 3.27061 7.37593C3.78781 6.9121 4.48962 6.64429 5.89325 6.10865L15.9466 2.27223C16.3364 2.12348 16.5313 2.0491 16.7319 2.01961C16.9096 1.99346 17.0904 1.99346 17.2681 2.01961C17.4687 2.0491 17.6636 2.12348 18.0534 2.27223L28.1067 6.10865C29.5104 6.64429 30.2122 6.9121 30.7293 7.37593C31.1862 7.78568 31.5382 8.30249 31.7547 8.88171C32 9.53737 32 10.3001 32 11.8256V19.0426Z" stroke="#FDA51D" stroke-width="3.5" stroke-linecap="round" stroke-linejoin="round"/>
</svg>
