<svg width="29" height="32" viewBox="0 0 29 32" fill="none" xmlns="http://www.w3.org/2000/svg">
<path d="M8.2607 14.4L14.1838 14.4L19.5684 14.4V10.1333L19.5684 8.60185L19.5 8V7.5L19.1838 7C18.5 5 16.9463 3.7 14.1838 3.7C11.4213 3.7 7.72224 5.33333 8.2607 14.4ZM5.18378 12V9C5.18378 4.03125 9.21504 0 14.1838 0C19.1525 0 23.1838 4.03125 23.1838 9V12H24.1838C26.39 12 28.1838 13.7938 28.1838 16V28C28.1838 30.2062 26.39 32 24.1838 32H4.18378C1.97754 32 0.18378 30.2062 0.18378 28V16C0.18378 13.7938 1.97754 12 4.18378 12H5.18378Z" fill="black" fill-opacity="0.4"/>
</svg>
